<svg width="27" height="27" viewBox="0 0 27 27" fill="none" xmlns="http://www.w3.org/2000/svg">
<path d="M26.8094 1.46129C26.4323 0.583365 25.5729 0.0104389 24.6175 0H8.73388C7.41804 3.92151e-08 6.35134 1.0667 6.35134 2.38254C6.35134 3.69838 7.41804 4.76508 8.73388 4.76508H18.8676L0.696781 22.9359C-0.23226 23.8661 -0.23226 25.373 0.696781 26.3032C1.62698 27.2323 3.1339 27.2323 4.0641 26.3032L22.2349 8.1324V18.2661C22.2349 19.582 23.3016 20.6487 24.6175 20.6487C25.9333 20.6487 27 19.582 27 18.2661V2.38254C26.9983 2.06584 26.9335 1.75265 26.8094 1.46129Z" fill="black"/>
</svg>
