<svg width="18" height="17" viewBox="0 0 18 17" fill="none" xmlns="http://www.w3.org/2000/svg">
<path d="M13.2728 10.569C15.6173 10.569 16.5775 12.7909 16.9652 14.3924C17.1745 15.2572 16.4119 16 15.446 16H14.4006M12.145 6.68965C13.8579 6.68965 14.9645 5.41598 14.9645 3.84483C14.9645 2.27368 13.8579 1 12.145 1M2.0305 16H10.4176C11.0542 16 11.5552 15.5156 11.4283 14.9433C11.0781 13.3633 9.93419 10.569 6.22404 10.569C2.51391 10.569 1.37002 13.3633 1.01977 14.9433C0.892901 15.5156 1.39385 16 2.0305 16ZM9.32551 3.84483C9.32551 5.41598 7.93694 6.68965 6.22404 6.68965C4.51115 6.68965 3.12258 5.41598 3.12258 3.84483C3.12258 2.27367 4.51115 1 6.22404 1C7.93694 1 9.32551 2.27367 9.32551 3.84483Z" stroke="currentColor" stroke-width="1.5" stroke-linecap="round" stroke-linejoin="round"/>
</svg>
